<?xml version="1.0" encoding="UTF-8" standalone="no"?>
<!-- Created with Inkscape (http://www.inkscape.org/) -->

<svg
   xmlns:dc="http://purl.org/dc/elements/1.1/"
   xmlns:cc="http://creativecommons.org/ns#"
   xmlns:rdf="http://www.w3.org/1999/02/22-rdf-syntax-ns#"
   xmlns:svg="http://www.w3.org/2000/svg"
   xmlns="http://www.w3.org/2000/svg"
   xmlns:xlink="http://www.w3.org/1999/xlink"
   xmlns:sodipodi="http://sodipodi.sourceforge.net/DTD/sodipodi-0.dtd"
   xmlns:inkscape="http://www.inkscape.org/namespaces/inkscape"
   id="svg2"
   version="1.1"
   inkscape:version="0.48.2 r9819"
   width="4435.3618"
   height="480.34396"
   xml:space="preserve"
   sodipodi:docname="logo_extrema.svg"
   inkscape:export-filename="/home/roberto/workspace/web-extrema/public/images/logo_extrema.png"
   inkscape:export-xdpi="56.231342"
   inkscape:export-ydpi="56.231342"><metadata
     id="metadata8"><rdf:RDF><cc:Work
         rdf:about=""><dc:format>image/svg+xml</dc:format><dc:type
           rdf:resource="http://purl.org/dc/dcmitype/StillImage" /></cc:Work></rdf:RDF></metadata><defs
     id="defs6"><linearGradient
       id="linearGradient3825"><stop
         style="stop-color:#d1dbe4;stop-opacity:1;"
         offset="0"
         id="stop3827" /><stop
         style="stop-color:#9fb6c8;stop-opacity:1;"
         offset="1"
         id="stop3829" /></linearGradient><clipPath
       clipPathUnits="userSpaceOnUse"
       id="clipPath20"><path
         d="m 0,467.197 1238.22,0 L 1238.22,0 0,0 0,467.197 z"
         id="path22"
         inkscape:connector-curvature="0" /></clipPath><clipPath
       clipPathUnits="userSpaceOnUse"
       id="clipPath36"><path
         d="m 0,467.197 1238.22,0 L 1238.22,0 0,0 0,467.197 z"
         id="path38"
         inkscape:connector-curvature="0" /></clipPath><linearGradient
       inkscape:collect="always"
       xlink:href="#linearGradient3825"
       id="linearGradient3831"
       x1="-182.3528"
       y1="-363.43771"
       x2="-182.3528"
       y2="81.505852"
       gradientUnits="userSpaceOnUse"
       gradientTransform="matrix(2.4623254,0,0,0.864,1994.7223,-106.20751)" /></defs><sodipodi:namedview
     pagecolor="#ffffff"
     bordercolor="#666666"
     borderopacity="1"
     objecttolerance="10"
     gridtolerance="10"
     guidetolerance="10"
     inkscape:pageopacity="0"
     inkscape:pageshadow="2"
     inkscape:window-width="1680"
     inkscape:window-height="1026"
     id="namedview4"
     showgrid="false"
     fit-margin-top="0"
     fit-margin-left="0"
     fit-margin-right="0"
     fit-margin-bottom="0"
     inkscape:zoom="0.1589851"
     inkscape:cx="816.19191"
     inkscape:cy="867.11485"
     inkscape:window-x="0"
     inkscape:window-y="24"
     inkscape:window-maximized="1"
     inkscape:current-layer="g10" /><g
     id="g10"
     inkscape:groupmode="layer"
     inkscape:label="logo_extrema"
     transform="matrix(1.25,0,0,-1.25,162.33847,520.37262)"><rect
       style="fill:url(#linearGradient3831);fill-opacity:1"
       id="rect3055"
       width="3548.2893"
       height="384.27518"
       x="-129.87077"
       y="-416.2981"
       transform="scale(1,-1)" /><g
       id="g3835"
       transform="translate(1028.8825,0)"><text
         id="text12"
         transform="matrix(1,0,0,-1,233.832,121.9766)"><tspan
           id="tspan14"
           sodipodi:role="line"
           y="0"
           x="0 30.324116 54.924404 74.775131 99.010063 129.57774 179.87437 210.9292 226.15215 260.19067 271.63831 300.50104 320.35175 350.91943 401.21606 432.27087 461.13361 476.35654 507.41138 537.97906 553.20203 565.6239 597.04413 613.18042 643.9917 668.22662 718.52325 749.57806 779.1106 790.55823 821.36951 852.78967 868.01263 902.112 913.9859 943.51843"
           style="font-size:60.89179993px;font-variant:normal;font-weight:normal;font-stretch:normal;writing-mode:lr-tb;fill:#000000;fill-opacity:1;fill-rule:nonzero;stroke:none;font-family:Eurostile;-inkscape-font-specification:EurostileRegular">Extrema Sistemas de Información S.L.</tspan></text>
<g
         id="g16"><g
           clip-path="url(#clipPath20)"
           id="g18"><g
             transform="translate(320.5146,213.7109)"
             id="g24"><path
               id="path26"
               style="fill:#00457d;fill-opacity:1;fill-rule:nonzero;stroke:none"
               d="m 0,0 25.55,0 0,-4.205 c 0,-13.171 -3.508,-22.502 -10.537,-27.999 -5.676,-4.439 -12.982,-7.208 -21.808,-8.417 -7.762,-0.871 -15.936,-1.338 -24.486,-1.338 -13.171,0 -23.616,1.156 -31.285,3.471 -7.67,2.307 -13.628,6.002 -17.832,11.134 -4.813,5.869 -7.768,14.138 -8.968,24.811 -0.972,8.271 -1.478,17.42 -1.478,27.449 0,16.819 1.152,29.2 3.509,37.242 3.878,12.799 12.015,21.213 24.399,25.186 7.306,2.353 17.653,3.509 31.096,3.509 17.788,0 30.498,-2.123 38.173,-6.374 11.32,-6.102 17.555,-19.641 18.848,-40.62 0.277,-4.571 0.369,-12.607 0.369,-24.07 l -90.295,0 c 0,-8.734 0.375,-15.714 1.114,-20.842 0.972,-6.935 2.819,-11.88 5.546,-14.738 4.16,-4.256 12.894,-6.38 26.245,-6.38 10.309,0 17.745,0.74 22.367,2.173 5.128,1.524 8.131,5.313 9.055,11.368 0.19,1.708 0.32,4.574 0.418,8.64 m 0.136,36.97 c -0.277,12.014 -1.108,19.817 -2.445,23.421 -1.89,5.041 -5.963,8.278 -12.204,9.755 -3.509,0.875 -9.104,1.336 -16.768,1.336 -10.032,0 -17.142,-0.879 -21.4,-2.586 -6.42,-2.587 -10.163,-9.149 -11.222,-19.588 -0.375,-2.732 -0.559,-6.844 -0.559,-12.338 l 64.598,0 z"
               inkscape:connector-curvature="0" /></g></g></g><g
         transform="translate(473.0503,302.7998)"
         id="g28"><path
           id="path30"
           style="fill:#00457d;fill-opacity:1;fill-rule:nonzero;stroke:none"
           d="m 0,0 -39.651,-60.905 44.268,-68.522 -30.173,0 -29.944,49.395 -29.619,-49.395 -30.775,0 44.544,67.832 L -110.995,0 -80.681,0 -55.5,-43.991 -30.178,0 0,0 z"
           inkscape:connector-curvature="0" /></g><g
         id="g32"><g
           clip-path="url(#clipPath36)"
           id="g34"><g
             transform="translate(569.0269,302.7998)"
             id="g40"><path
               id="path42"
               style="fill:#00457d;fill-opacity:1;fill-rule:nonzero;stroke:none"
               d="m 0,0 0,-19.912 -49.678,0 0,-71.627 c 0,-5.868 0.554,-10.162 1.614,-12.982 1.618,-4.207 6.425,-6.335 14.328,-6.335 7.48,0 12.194,1.852 14.041,5.545 1.803,3.419 2.732,9.478 2.732,18.115 0,1.342 -0.092,3.237 -0.234,5.683 l 22.183,0 c 0.087,-4.247 0.141,-7.345 0.141,-9.331 0,-12.71 -2.308,-22.136 -6.887,-28.276 -3.188,-4.256 -7.441,-7.303 -12.753,-9.155 -5.318,-1.842 -12.341,-2.771 -21.113,-2.771 -12.9,0 -22.139,1.847 -27.728,5.546 -6.616,4.343 -10.402,10.996 -11.374,20.056 -0.272,2.124 -0.413,5.956 -0.413,11.502 l 0,74.03 -17.327,0 0,19.912 17.327,0 0,30.034 25.463,0 L -49.678,0 0,0 z"
               inkscape:connector-curvature="0" /></g><g
             transform="translate(592.312,302.7998)"
             id="g44"><path
               id="path46"
               style="fill:#00457d;fill-opacity:1;fill-rule:nonzero;stroke:none"
               d="m 0,0 25.458,0 -1.89,-16.499 0.554,-0.272 c 3.97,6.652 8.082,11.274 12.287,13.816 6.24,3.604 14.186,5.407 23.849,5.407 11.825,0 20.608,-3.055 26.381,-9.201 5.59,-5.956 8.408,-15.844 8.408,-29.662 0,-2.077 -0.043,-5.456 -0.14,-10.165 l -24.209,0 c 0.087,4.432 0.135,7.257 0.135,8.549 0,6.7 -0.966,11.412 -2.862,14.231 -2.678,3.788 -7.947,5.684 -15.714,5.684 -12.063,0 -20.053,-4.16 -23.931,-12.479 -1.896,-4.25 -2.868,-11.553 -2.868,-21.949 l 0,-76.887 -25.458,0 L 0,0 z"
               inkscape:connector-curvature="0" /></g><g
             transform="translate(795.9482,213.7109)"
             id="g48"><path
               id="path50"
               style="fill:#00457d;fill-opacity:1;fill-rule:nonzero;stroke:none"
               d="m 0,0 25.556,0 0,-4.205 c 0,-13.171 -3.514,-22.502 -10.537,-27.999 -5.682,-4.439 -12.988,-7.208 -21.809,-8.417 -7.767,-0.871 -15.947,-1.338 -24.49,-1.338 -13.172,0 -23.612,1.156 -31.287,3.471 -7.668,2.307 -13.627,6.002 -17.831,11.134 -4.813,5.869 -7.768,14.138 -8.974,24.811 -0.967,8.271 -1.472,17.42 -1.472,27.449 0,16.819 1.157,29.2 3.509,37.242 3.884,12.799 12.021,21.213 24.394,25.186 7.311,2.353 17.663,3.509 31.101,3.509 17.794,0 30.498,-2.123 38.167,-6.374 11.326,-6.102 17.567,-19.641 18.86,-40.62 0.277,-4.571 0.369,-12.607 0.369,-24.07 l -90.289,0 c 0,-8.734 0.369,-15.714 1.101,-20.842 0.979,-6.935 2.82,-11.88 5.547,-14.738 4.16,-4.256 12.895,-6.38 26.245,-6.38 10.31,0 17.745,0.74 22.367,2.173 5.128,1.524 8.131,5.313 9.054,11.368 C -0.233,-6.932 -0.087,-4.066 0,0 m 0.142,36.97 c -0.284,12.014 -1.114,19.817 -2.451,23.421 -1.895,5.041 -5.963,8.278 -12.204,9.755 -3.509,0.875 -9.098,1.336 -16.767,1.336 -10.028,0 -17.149,-0.879 -21.391,-2.586 -6.43,-2.587 -10.173,-9.149 -11.237,-19.588 -0.364,-2.732 -0.549,-6.844 -0.549,-12.338 l 64.599,0 z"
               inkscape:connector-curvature="0" /></g><g
             transform="translate(849.2754,302.7998)"
             id="g52"><path
               id="path54"
               style="fill:#00457d;fill-opacity:1;fill-rule:nonzero;stroke:none"
               d="m 0,0 25.453,0 -0.684,-19.774 0.553,-0.277 c 3.233,6.789 7.116,11.646 11.641,14.644 7.392,4.671 17.098,7.025 29.113,7.025 22.737,0 35.908,-7.62 39.51,-22.872 l 0.553,0 c 3.324,7.021 7.398,12.153 12.15,15.29 7.768,5.133 17.98,7.721 30.592,7.721 19.499,0 32.523,-5.269 39.14,-15.847 3.877,-6.284 5.817,-16.362 5.817,-30.178 l 0,-85.159 -25.458,0 0,82.433 c 0,8.687 -0.923,15.018 -2.819,18.994 -2.906,5.869 -10.254,8.777 -22.084,8.777 -16.682,0 -27.034,-4.298 -31.01,-12.848 -1.988,-4.34 -2.96,-11.686 -2.96,-22.088 l 0,-75.268 -25.458,0 0,82.156 c -0.272,7.854 -0.505,12.615 -0.738,14.233 -0.229,1.616 -0.74,3.234 -1.571,4.899 -2.955,5.867 -10.537,8.784 -22.736,8.784 -14.6,0 -24.307,-4.166 -29.065,-12.482 -2.998,-5.041 -4.486,-12.8 -4.486,-23.245 l 0,-74.345 -25.453,0 L 0,0 z"
               inkscape:connector-curvature="0" /></g><g
             transform="translate(1103.6055,265.835)"
             id="g56"><path
               id="path58"
               style="fill:#00457d;fill-opacity:1;fill-rule:nonzero;stroke:none"
               d="m 0,0 -25.557,0 c 0.093,12.196 1.983,20.789 5.682,25.873 3.884,5.407 10.63,9.011 20.287,10.815 6.606,1.244 15.85,1.895 27.777,1.895 17.235,0 29.663,-1.803 37.24,-5.407 C 73.381,29.391 78.644,23.66 81.24,15.985 83.131,10.307 84.098,2.447 84.098,-7.58 l 0,-84.882 -25.459,0 1.478,15.847 -0.646,0.276 c -2.912,-5.45 -6.426,-9.331 -10.587,-11.786 -3.694,-2.257 -7.898,-3.832 -12.564,-4.66 -4.719,-0.878 -11.139,-1.296 -19.363,-1.296 -9.939,0 -17.838,0.742 -23.709,2.219 -5.866,1.523 -10.717,4.066 -14.6,7.67 -6.425,5.773 -9.609,15.575 -9.609,29.39 0,15.942 3.693,26.797 11.086,32.481 7.398,5.774 19.875,8.644 37.387,8.644 13.959,0 24.484,-1.48 31.519,-4.484 3.688,-1.523 6.74,-4.714 9.054,-9.611 l 0.554,0.133 0,18.305 c 0,9.657 -1.157,16.816 -3.514,21.53 -1.526,3.056 -4.346,5.275 -8.408,6.608 -4.069,1.342 -9.988,2.037 -17.745,2.037 -9.288,0 -16.132,-0.834 -20.423,-2.447 C 2.861,16.219 0,10.812 0,2.17 L 0,0 z m 26.289,-31.837 c -13.449,0 -22.275,-1.668 -26.382,-4.989 -3.096,-2.452 -4.622,-7.719 -4.622,-15.853 0,-9.192 2.031,-15.154 6.1,-17.837 4.16,-2.819 12.15,-4.204 23.937,-4.204 14.274,0 23.937,2.08 29.016,6.236 3.236,2.685 4.855,7.626 4.855,14.744 0,7.943 -1.668,13.304 -4.992,16.08 -4.529,3.884 -13.818,5.823 -27.912,5.823"
               inkscape:connector-curvature="0" /></g><g
             transform="translate(148.1699,233.3594)"
             id="g60"><path
               id="path62"
               style="fill:#005187;fill-opacity:1;fill-rule:nonzero;stroke:none"
               d="m 0,0 48.765,0 c 3.085,0 5.611,-2.675 5.611,-5.953 l 0,-48.089 c 0,-3.27 -2.526,-5.944 -5.611,-5.944 l -48.765,0 c -3.091,0 -5.616,2.674 -5.616,5.944 l 0,48.089 C -5.616,-2.675 -3.091,0 0,0"
               inkscape:connector-curvature="0" /></g><g
             transform="translate(148.1699,302.9219)"
             id="g64"><path
               id="path66"
               style="fill:#00457d;fill-opacity:1;fill-rule:nonzero;stroke:none"
               d="m 0,0 48.765,0 c 3.085,0 5.611,-2.675 5.611,-5.95 l 0,-48.084 c 0,-3.275 -2.526,-5.95 -5.611,-5.95 l -48.765,0 c -3.091,0 -5.616,2.675 -5.616,5.95 l 0,48.084 C -5.616,-2.675 -3.091,0 0,0"
               inkscape:connector-curvature="0" /></g><g
             transform="translate(78.6128,233.3594)"
             id="g68"><path
               id="path70"
               style="fill:#1f5e92;fill-opacity:1;fill-rule:nonzero;stroke:none"
               d="m 0,0 48.759,0 c 3.096,0 5.617,-2.675 5.617,-5.953 l 0,-48.089 c 0,-3.27 -2.521,-5.944 -5.617,-5.944 l -48.759,0 c -3.085,0 -5.611,2.674 -5.611,5.944 l 0,48.089 C -5.611,-2.675 -3.085,0 0,0"
               inkscape:connector-curvature="0" /></g><g
             transform="translate(51.4873,332.8501)"
             id="g72"><path
               id="path74"
               style="fill:#00457d;fill-opacity:1;fill-rule:nonzero;stroke:none"
               d="m 0,0 73.093,0 c 4.622,0 8.408,-4.008 8.408,-8.916 l 0,-72.078 c 0,-4.904 -3.786,-8.921 -8.408,-8.921 l -73.093,0 c -4.627,0 -8.408,4.017 -8.408,8.921 l 0,72.078 C -8.408,-4.008 -4.627,0 0,0"
               inkscape:connector-curvature="0" /></g><g
             transform="translate(53.5786,326.9814)"
             id="g76"><path
               id="path78"
               style="fill:#ffffff;fill-opacity:1;fill-rule:nonzero;stroke:none"
               d="m 0,0 68.911,0 c 2.547,0 4.633,-2.208 4.633,-4.91 l 0,-68.352 c 0,-2.702 -2.086,-4.91 -4.633,-4.91 l -68.911,0 c -2.547,0 -4.633,2.208 -4.633,4.91 l 0,68.352 C -4.633,-2.208 -2.547,0 0,0"
               inkscape:connector-curvature="0" /></g></g></g></g></g></svg>