<svg xmlns="http://www.w3.org/2000/svg" height="301.381" width="528.887" version="1.1" data-name="Layer 1" id="Layer_1"><defs id="defs7"><style id="style2"></style><clipPath id="clip-path"><path id="rect4" fill="none" d="M328 100h195v195H328z"/></clipPath></defs><g id="text37" aria-label="AuthorizedTrainer" font-weight="500" font-size="60" font-family="GoogleSans-Medium,'Google Sans'" fill="#fdfdfd" fill-opacity="1"><path id="path975" d="M20.04 262.621l-8.028 21.768h16.084zm-3.34-5.83h6.708l16.67 43.74h-6.152l-3.985-11.22H10.225L6.24 300.53H0z" letter-spacing="-.02em"/><path id="path977" d="M44.889 287.582v-19.863h5.39v19.658q0 4.658 1.817 7.002 1.816 2.314 5.45 2.314 4.364 0 6.884-2.783 2.549-2.783 2.549-7.588V267.72h5.39v32.812h-5.39v-5.039q-1.963 2.988-4.57 4.453-2.579 1.436-6.006 1.436-5.655 0-8.584-3.516-2.93-3.515-2.93-10.283zm13.564-20.654z" letter-spacing="0"/><path id="path979" d="M88.864 258.402v9.317h11.103v4.19H88.864v17.812q0 4.013 1.083 5.156 1.114 1.142 4.483 1.142h5.537v4.512H94.43q-6.24 0-8.613-2.314-2.373-2.344-2.373-8.496v-17.813h-3.955v-4.19h3.955v-9.316z" letter-spacing="0"/><path id="path981" d="M131.76 280.726v19.805h-5.39v-19.629q0-4.658-1.816-6.972-1.817-2.315-5.45-2.315-4.365 0-6.884 2.783-2.52 2.784-2.52 7.588v18.545h-5.42v-45.586h5.42v17.871q1.934-2.959 4.541-4.423 2.637-1.465 6.065-1.465 5.654 0 8.555 3.515 2.9 3.487 2.9 10.283z"/><path id="path983" d="M152.3 271.498q-4.336 0-6.855 3.398-2.52 3.37-2.52 9.258 0 5.889 2.49 9.287 2.52 3.37 6.885 3.37 4.307 0 6.827-3.399 2.52-3.398 2.52-9.258 0-5.83-2.52-9.228-2.52-3.428-6.827-3.428zm0-4.57q7.032 0 11.045 4.57 4.014 4.57 4.014 12.656 0 8.057-4.014 12.656-4.013 4.57-11.045 4.57-7.06 0-11.074-4.57-3.984-4.6-3.984-12.656 0-8.086 3.984-12.656 4.014-4.57 11.074-4.57z" letter-spacing="-.01em"/><path id="path985" d="M194.42 272.758q-.909-.528-1.993-.762-1.055-.264-2.344-.264-4.57 0-7.031 2.989-2.432 2.959-2.432 8.525v17.285h-5.42V267.72h5.42v5.097q1.7-2.988 4.424-4.423 2.725-1.465 6.621-1.465.557 0 1.23.088.675.058 1.495.205z"/><path id="path987" d="M200.132 267.719h5.39v32.812h-5.39zm0-12.774h5.39v6.826h-5.39z"/><path id="path989" d="M212.602 267.719h25.605v4.922l-20.273 23.584h20.273v4.306H211.87v-4.922l20.274-23.584h-19.541z" letter-spacing="-.01em"/><path id="path991" d="M272.472 282.777v2.637h-24.785q.351 5.566 3.34 8.496 3.017 2.9 8.379 2.9 3.105 0 6.005-.761 2.93-.762 5.801-2.285v5.097q-2.9 1.23-5.947 1.875t-6.182.645q-7.851 0-12.45-4.57-4.571-4.57-4.571-12.364 0-8.056 4.336-12.773 4.365-4.746 11.748-4.746 6.62 0 10.459 4.277 3.867 4.248 3.867 11.572zm-5.39-1.582q-.06-4.424-2.49-7.06-2.403-2.637-6.388-2.637-4.511 0-7.236 2.549-2.695 2.549-3.105 7.178z" letter-spacing="0"/><path id="path993" d="M300.857 272.7v-17.755h5.391v45.586h-5.39v-4.922q-1.7 2.93-4.307 4.366-2.578 1.406-6.211 1.406-5.948 0-9.698-4.746-3.72-4.746-3.72-12.48 0-7.735 3.72-12.481 3.75-4.746 9.698-4.746 3.633 0 6.21 1.435 2.608 1.406 4.307 4.336zm-18.369 11.454q0 5.948 2.432 9.346 2.46 3.37 6.738 3.37 4.277 0 6.738-3.37 2.461-3.398 2.461-9.346 0-5.947-2.46-9.316-2.462-3.399-6.739-3.399-4.277 0-6.738 3.399-2.432 3.369-2.432 9.316z" letter-spacing="0"/><path id="path995" d="M322.145 256.79h37.002v4.981H343.62v38.76h-5.947v-38.76h-15.528z" letter-spacing="-.06em"/><path id="path997" d="M377.29 272.758q-.909-.528-1.993-.762-1.055-.264-2.344-.264-4.57 0-7.031 2.989-2.432 2.959-2.432 8.525v17.285h-5.42V267.72h5.42v5.097q1.7-2.988 4.424-4.423 2.725-1.465 6.621-1.465.557 0 1.23.088.675.058 1.495.205z" letter-spacing="-.02em"/><path id="path999" d="M396.348 284.037q-6.534 0-9.053 1.494-2.52 1.494-2.52 5.098 0 2.87 1.875 4.57 1.905 1.67 5.157 1.67 4.482 0 7.177-3.164 2.725-3.193 2.725-8.467v-1.2zm10.752-2.227v18.721h-5.391v-4.98q-1.846 2.988-4.6 4.424-2.754 1.406-6.738 1.406-5.039 0-8.027-2.813-2.96-2.841-2.96-7.588 0-5.537 3.692-8.35 3.72-2.812 11.074-2.812h7.559v-.527q0-3.72-2.46-5.742-2.433-2.051-6.856-2.051-2.813 0-5.479.674t-5.127 2.021v-4.98q2.96-1.143 5.742-1.7 2.784-.585 5.42-.585 7.12 0 10.635 3.691 3.516 3.691 3.516 11.191z"/><path id="path1001" d="M418.232 267.719h5.391v32.812h-5.39zm0-12.774h5.391v6.826h-5.39z"/><path id="path1003" d="M462.148 280.726v19.805h-5.39v-19.629q0-4.658-1.817-6.972-1.816-2.315-5.449-2.315-4.365 0-6.885 2.783-2.52 2.784-2.52 7.588v18.545h-5.419V267.72h5.42v5.097q1.933-2.959 4.54-4.423 2.638-1.465 6.065-1.465 5.655 0 8.555 3.515 2.9 3.487 2.9 10.283z"/><path id="path1005" d="M501.025 282.777v2.637H476.24q.352 5.566 3.34 8.496 3.018 2.9 8.379 2.9 3.105 0 6.006-.761 2.93-.762 5.8-2.285v5.097q-2.9 1.23-5.947 1.875t-6.181.645q-7.852 0-12.451-4.57-4.57-4.57-4.57-12.364 0-8.056 4.335-12.773 4.365-4.746 11.748-4.746 6.621 0 10.46 4.277 3.866 4.248 3.866 11.572zm-5.39-1.582q-.059-4.424-2.49-7.06-2.403-2.637-6.387-2.637-4.512 0-7.237 2.549-2.695 2.549-3.105 7.178z"/><path id="path1007" d="M528.887 272.758q-.908-.528-1.992-.762-1.055-.264-2.344-.264-4.57 0-7.031 2.989-2.432 2.959-2.432 8.525v17.285h-5.42V267.72h5.42v5.097q1.7-2.988 4.424-4.423 2.724-1.465 6.62-1.465.557 0 1.231.088.674.058 1.494.205z"/></g><g id="text55" aria-label="GoogleCloud" font-size="41" font-family="GoogleSans-Regular,'Google Sans'" fill="#fdfdfd" fill-opacity="1"><path id="path952" d="M153.445 222.477v-8.028h-6.606v-3.323h10.61v12.832q-2.342 1.662-5.165 2.523-2.823.84-6.026.84-7.007 0-10.97-4.083-3.945-4.104-3.945-11.411 0-7.328 3.944-11.411 3.964-4.104 10.971-4.104 2.923 0 5.545.72 2.643.72 4.865 2.122v4.304q-2.242-1.901-4.764-2.862-2.523-.961-5.306-.961-5.485 0-8.248 3.063-2.742 3.063-2.742 9.129 0 6.046 2.742 9.109 2.763 3.063 8.248 3.063 2.142 0 3.824-.36 1.682-.381 3.023-1.162z" letter-spacing="-.01em"/><path id="path954" d="M174.724 206.902q-2.963 0-4.685 2.322-1.722 2.302-1.722 6.326 0 4.024 1.702 6.346 1.722 2.303 4.704 2.303 2.943 0 4.665-2.323 1.722-2.322 1.722-6.326 0-3.984-1.722-6.306-1.722-2.342-4.665-2.342zm0-3.123q4.804 0 7.547 3.123 2.743 3.123 2.743 8.648 0 5.506-2.743 8.649-2.743 3.123-7.547 3.123-4.825 0-7.568-3.123-2.723-3.143-2.723-8.649 0-5.525 2.723-8.648 2.743-3.123 7.568-3.123z"/><path id="path956" d="M199.788 206.902q-2.963 0-4.685 2.322-1.721 2.302-1.721 6.326 0 4.024 1.701 6.346 1.722 2.303 4.705 2.303 2.943 0 4.664-2.323 1.722-2.322 1.722-6.326 0-3.984-1.722-6.306-1.721-2.342-4.664-2.342zm0-3.123q4.805 0 7.547 3.123 2.743 3.123 2.743 8.648 0 5.506-2.743 8.649-2.742 3.123-7.547 3.123-4.825 0-7.567-3.123-2.723-3.143-2.723-8.649 0-5.525 2.723-8.648 2.742-3.123 7.567-3.123z"/><path id="path958" d="M230.918 215.27q0-4.004-1.661-6.206-1.642-2.202-4.625-2.202-2.963 0-4.624 2.202-1.642 2.202-1.642 6.206 0 3.984 1.642 6.186 1.661 2.202 4.624 2.202 2.983 0 4.625-2.202 1.661-2.202 1.661-6.186zm3.684 8.688q0 5.726-2.543 8.509-2.542 2.803-7.787 2.803-1.942 0-3.664-.3-1.721-.281-3.343-.882v-3.583q1.622.88 3.203 1.301 1.582.42 3.223.42 3.624 0 5.426-1.901 1.801-1.882 1.801-5.706v-1.822q-1.14 1.982-2.923 2.963-1.781.981-4.264.981-4.124 0-6.646-3.143-2.523-3.143-2.523-8.328 0-5.205 2.523-8.348 2.522-3.143 6.646-3.143 2.483 0 4.264.98 1.782.982 2.923 2.964v-3.404h3.684z"/><path id="path960" d="M239.385 195.59h3.684v31.151h-3.684z" letter-spacing="-.01em"/><path id="path962" d="M267.004 214.61v1.801h-16.937q.24 3.804 2.282 5.806 2.062 1.982 5.726 1.982 2.122 0 4.104-.52 2.002-.521 3.964-1.562v3.483q-1.982.84-4.064 1.281-2.082.44-4.224.44-5.365 0-8.509-3.122-3.123-3.123-3.123-8.449 0-5.505 2.963-8.728 2.983-3.243 8.028-3.243 4.525 0 7.147 2.923 2.643 2.902 2.643 7.907zm-3.684-1.082q-.04-3.023-1.702-4.824-1.641-1.802-4.364-1.802-3.083 0-4.945 1.742-1.841 1.741-2.122 4.904z"/><path id="path964" d="M302.147 199.154v4.264q-2.042-1.901-4.364-2.842-2.303-.941-4.905-.941-5.125 0-7.848 3.143-2.722 3.123-2.722 9.049 0 5.905 2.722 9.048 2.723 3.124 7.848 3.124 2.602 0 4.905-.941 2.322-.941 4.364-2.843v4.224q-2.122 1.441-4.504 2.162-2.363.72-5.005.72-6.787 0-10.69-4.143-3.905-4.164-3.905-11.351 0-7.207 3.904-11.351 3.904-4.164 10.69-4.164 2.683 0 5.046.72 2.382.7 4.464 2.122z" letter-spacing="-.01em"/><path id="path966" d="M309.575 195.59h3.684v31.151h-3.684z" letter-spacing="-.01em"/><path id="path968" d="M329.225 206.902q-2.963 0-4.685 2.322-1.722 2.302-1.722 6.326 0 4.024 1.702 6.346 1.722 2.303 4.705 2.303 2.942 0 4.664-2.323 1.722-2.322 1.722-6.326 0-3.984-1.722-6.306-1.722-2.342-4.664-2.342zm0-3.123q4.804 0 7.547 3.123 2.743 3.123 2.743 8.648 0 5.506-2.743 8.649-2.743 3.123-7.547 3.123-4.825 0-7.568-3.123-2.722-3.143-2.722-8.649 0-5.525 2.722-8.648 2.743-3.123 7.568-3.123z" letter-spacing="-.01em"/><path id="path970" d="M344.81 217.893v-13.574h3.684v13.433q0 3.184 1.241 4.785 1.241 1.582 3.724 1.582 2.983 0 4.704-1.902 1.742-1.902 1.742-5.185v-12.713h3.684v22.422h-3.684v-3.443q-1.341 2.042-3.123 3.043-1.762.98-4.104.98-3.864 0-5.866-2.402t-2.002-7.026zm9.27-14.114z" letter-spacing="-.01em"/><path id="path972" d="M379.8 207.723V195.59h3.683v31.15h-3.684v-3.363q-1.16 2.002-2.942 2.983-1.762.96-4.245.96-4.064 0-6.626-3.242-2.543-3.244-2.543-8.529t2.543-8.528q2.562-3.243 6.626-3.243 2.483 0 4.245.98 1.781.962 2.942 2.964zm-12.553 7.827q0 4.064 1.662 6.387 1.681 2.302 4.604 2.302t4.605-2.302q1.681-2.323 1.681-6.387t-1.681-6.366q-1.682-2.322-4.605-2.322-2.923 0-4.604 2.322-1.662 2.302-1.662 6.366z"/></g><g transform="translate(-171.849 -120.289)" id="g65" clip-path="url(#clip-path)"><path id="path57" d="M451 161.83l6 .11 16.26-16.26.79-6.89a73.05 73.05 0 0 0-119.11 35.5c1.78-1.23 5.57-.31 5.57-.31l32.5-5.34s1.68-2.77 2.51-2.6a40.53 40.53 0 0 1 55.48-4.21z" fill="#ea4335"/><path id="path59" d="M496.08 174.33A73.13 73.13 0 0 0 474 138.78l-23 23a40.59 40.59 0 0 1 15.14 31.61v4.06a20.32 20.32 0 0 1 0 40.63H425.5l-4.07 4.08v24.37l4.07 4.05h40.63a52.79 52.79 0 0 0 29.95-96.28z" fill="#4285f4"/><path id="path61" d="M384.87 270.61h40.6v-32.5h-40.59a20.2 20.2 0 0 1-8.37-1.83l-5.86 1.79-16.27 16.27-1.38 5.49a52.6 52.6 0 0 0 31.87 10.78z" fill="#34a853"/><path id="path63" d="M384.88 165A52.79 52.79 0 0 0 353 259.85l23.56-23.55a20.3 20.3 0 1 1 26.84-26.84l23.55-23.56a52.74 52.74 0 0 0-42.07-20.9z" fill="#fbbc05"/></g></svg>