<svg xmlns="http://www.w3.org/2000/svg" xmlns:xlink="http://www.w3.org/1999/xlink" width="4435.362" height="480.344"><defs><linearGradient id="a"><stop offset="0" stop-color="#d1dbe4"/><stop offset="1" stop-color="#9fb6c8"/></linearGradient><clipPath id="c"><path d="M0 467.197h1238.22v-467.197h-1238.22v467.197z"/></clipPath><clipPath id="d"><path d="M0 467.197h1238.22v-467.197h-1238.22v467.197z"/></clipPath><linearGradient xlink:href="#a" id="b" x1="-182.353" y1="-363.438" x2="-182.353" y2="81.506" gradientUnits="userSpaceOnUse" gradientTransform="matrix(2.462 0 0 .864 1994.722 -106.208)"/></defs><g transform="matrix(1.25 0 0 -1.25 162.338 520.373)"><rect width="3548.289" height="384.275" x="-129.871" y="-416.298" transform="scale(1 -1)" fill="url(#b)"/><g transform="translate(1028.882)"><text transform="matrix(1 0 0 -1 233.832 121.977)"><tspan y="0" x="0 30.324116 54.924404 74.775131 99.010063 129.57774 179.87437 210.9292 226.15215 260.19067 271.63831 300.50104 320.35175 350.91943 401.21606 432.27087 461.13361 476.35654 507.41138 537.97906 553.20203 565.6239 597.04413 613.18042 643.9917 668.22662 718.52325 749.57806 779.1106 790.55823 821.36951 852.78967 868.01263 902.112 913.9859 943.51843" style="-inkscape-font-specification:EurostileRegular" font-size="60.892" font-family="Eurostile">Extrema Sistemas de Información S.L.</tspan></text><path d="M320.515 213.711h25.55v-4.205c0-13.171-3.508-22.502-10.537-27.999-5.676-4.439-12.982-7.208-21.808-8.417-7.762-.871-15.936-1.338-24.486-1.338-13.171 0-23.616 1.156-31.285 3.471-7.67 2.307-13.628 6.002-17.832 11.134-4.813 5.869-7.768 14.138-8.968 24.811-.972 8.271-1.478 17.42-1.478 27.449 0 16.819 1.152 29.2 3.509 37.242 3.878 12.799 12.015 21.213 24.399 25.186 7.306 2.353 17.653 3.509 31.096 3.509 17.788 0 30.498-2.123 38.173-6.374 11.32-6.102 17.555-19.641 18.848-40.62.277-4.571.369-12.607.369-24.07h-90.295c0-8.734.375-15.714 1.114-20.842.972-6.935 2.819-11.88 5.546-14.738 4.16-4.256 12.894-6.38 26.245-6.38 10.309 0 17.745.74 22.367 2.173 5.128 1.524 8.131 5.313 9.055 11.368.19 1.708.32 4.574.418 8.64m.136 36.97c-.277 12.014-1.108 19.817-2.445 23.421-1.89 5.041-5.963 8.278-12.204 9.755-3.509.875-9.104 1.336-16.768 1.336-10.032 0-17.142-.879-21.4-2.586-6.42-2.587-10.163-9.149-11.222-19.588-.375-2.732-.559-6.844-.559-12.338h64.598z" fill="#00457d" clip-path="url(#c)"/><path d="M473.05 302.8l-39.651-60.905 44.268-68.522h-30.173l-29.944 49.395-29.619-49.395h-30.775l44.544 67.832-39.645 61.595h30.314l25.181-43.991 25.322 43.991h30.178z" fill="#00457d"/><g clip-path="url(#d)"><path d="M569.027 302.8v-19.912h-49.678v-71.627c0-5.868.554-10.162 1.614-12.982 1.618-4.207 6.425-6.335 14.328-6.335 7.48 0 12.194 1.852 14.041 5.545 1.803 3.419 2.732 9.478 2.732 18.115 0 1.342-.092 3.237-.234 5.683h22.183c.087-4.247.141-7.345.141-9.331 0-12.71-2.308-22.136-6.887-28.276-3.188-4.256-7.441-7.303-12.753-9.155-5.318-1.842-12.341-2.771-21.113-2.771-12.9 0-22.139 1.847-27.728 5.546-6.616 4.343-10.402 10.996-11.374 20.056-.272 2.124-.413 5.956-.413 11.502v74.03h-17.327v19.912h17.327v30.034h25.463v-30.034h49.678z" fill="#00457d"/><path d="M592.312 302.8h25.458l-1.89-16.499.554-.272c3.97 6.652 8.082 11.274 12.287 13.816 6.24 3.604 14.186 5.407 23.849 5.407 11.825 0 20.608-3.055 26.381-9.201 5.59-5.956 8.408-15.844 8.408-29.662 0-2.077-.043-5.456-.14-10.165h-24.209c.087 4.432.135 7.257.135 8.549 0 6.7-.966 11.412-2.862 14.231-2.678 3.788-7.947 5.684-15.714 5.684-12.063 0-20.053-4.16-23.931-12.479-1.896-4.25-2.868-11.553-2.868-21.949v-76.887h-25.458v129.427z" fill="#00457d"/><path d="M795.948 213.711h25.556v-4.205c0-13.171-3.514-22.502-10.537-27.999-5.682-4.439-12.988-7.208-21.809-8.417-7.767-.871-15.947-1.338-24.49-1.338-13.172 0-23.612 1.156-31.287 3.471-7.668 2.307-13.627 6.002-17.831 11.134-4.813 5.869-7.768 14.138-8.974 24.811-.967 8.271-1.472 17.42-1.472 27.449 0 16.819 1.157 29.2 3.509 37.242 3.884 12.799 12.021 21.213 24.394 25.186 7.311 2.353 17.663 3.509 31.101 3.509 17.794 0 30.498-2.123 38.167-6.374 11.326-6.102 17.567-19.641 18.86-40.62.277-4.571.369-12.607.369-24.07h-90.289c0-8.734.369-15.714 1.101-20.842.979-6.935 2.82-11.88 5.547-14.738 4.16-4.256 12.895-6.38 26.245-6.38 10.31 0 17.745.74 22.367 2.173 5.128 1.524 8.131 5.313 9.054 11.368.186 1.708.332 4.574.419 8.64m.142 36.97c-.284 12.014-1.114 19.817-2.451 23.421-1.895 5.041-5.963 8.278-12.204 9.755-3.509.875-9.098 1.336-16.767 1.336-10.028 0-17.149-.879-21.391-2.586-6.43-2.587-10.173-9.149-11.237-19.588-.364-2.732-.549-6.844-.549-12.338h64.599z" fill="#00457d"/><path d="M849.275 302.8h25.453l-.684-19.774.553-.277c3.233 6.789 7.116 11.646 11.641 14.644 7.392 4.671 17.098 7.025 29.113 7.025 22.737 0 35.908-7.62 39.51-22.872h.553c3.324 7.021 7.398 12.153 12.15 15.29 7.768 5.133 17.98 7.721 30.592 7.721 19.499 0 32.523-5.269 39.14-15.847 3.877-6.284 5.817-16.362 5.817-30.178v-85.159h-25.458v82.433c0 8.687-.923 15.018-2.819 18.994-2.906 5.869-10.254 8.777-22.084 8.777-16.682 0-27.034-4.298-31.01-12.848-1.988-4.34-2.96-11.686-2.96-22.088v-75.268h-25.458v82.156c-.272 7.854-.505 12.615-.738 14.233-.229 1.616-.74 3.234-1.571 4.899-2.955 5.867-10.537 8.784-22.736 8.784-14.6 0-24.307-4.166-29.065-12.482-2.998-5.041-4.486-12.8-4.486-23.245v-74.345h-25.453v129.427z" fill="#00457d"/><path d="M1103.605 265.835h-25.557c.093 12.196 1.983 20.789 5.682 25.873 3.884 5.407 10.63 9.011 20.287 10.815 6.606 1.244 15.85 1.895 27.777 1.895 17.235 0 29.663-1.803 37.24-5.407 7.952-3.785 13.215-9.516 15.811-17.191 1.891-5.678 2.858-13.538 2.858-23.565v-84.882h-25.459l1.478 15.847-.646.276c-2.912-5.45-6.426-9.331-10.587-11.786-3.694-2.257-7.898-3.832-12.564-4.66-4.719-.878-11.139-1.296-19.363-1.296-9.939 0-17.838.742-23.709 2.219-5.866 1.523-10.717 4.066-14.6 7.67-6.425 5.773-9.609 15.575-9.609 29.39 0 15.942 3.693 26.797 11.086 32.481 7.398 5.774 19.875 8.644 37.387 8.644 13.959 0 24.484-1.48 31.519-4.484 3.688-1.523 6.74-4.714 9.054-9.611l.554.133v18.305c0 9.657-1.157 16.816-3.514 21.53-1.526 3.056-4.346 5.275-8.408 6.608-4.069 1.342-9.988 2.037-17.745 2.037-9.288 0-16.132-.834-20.423-2.447-5.688-2.175-8.549-7.582-8.549-16.224v-2.17zm26.289-31.837c-13.449 0-22.275-1.668-26.382-4.989-3.096-2.452-4.622-7.719-4.622-15.853 0-9.192 2.031-15.154 6.1-17.837 4.16-2.819 12.15-4.204 23.937-4.204 14.274 0 23.937 2.08 29.016 6.236 3.236 2.685 4.855 7.626 4.855 14.744 0 7.943-1.668 13.304-4.992 16.08-4.529 3.884-13.818 5.823-27.912 5.823" fill="#00457d"/><path d="M148.17 233.359h48.765c3.085 0 5.611-2.675 5.611-5.953v-48.089c0-3.27-2.526-5.944-5.611-5.944h-48.765c-3.091 0-5.616 2.674-5.616 5.944v48.089c0 3.278 2.525 5.953 5.616 5.953" fill="#005187"/><path d="M148.17 302.922h48.765c3.085 0 5.611-2.675 5.611-5.95v-48.084c0-3.275-2.526-5.95-5.611-5.95h-48.765c-3.091 0-5.616 2.675-5.616 5.95v48.084c0 3.275 2.525 5.95 5.616 5.95" fill="#00457d"/><path d="M78.613 233.359h48.759c3.096 0 5.617-2.675 5.617-5.953v-48.089c0-3.27-2.521-5.944-5.617-5.944h-48.759c-3.085 0-5.611 2.674-5.611 5.944v48.089c0 3.278 2.526 5.953 5.611 5.953" fill="#1f5e92"/><path d="M51.487 332.85h73.093c4.622 0 8.408-4.008 8.408-8.916v-72.078c0-4.904-3.786-8.921-8.408-8.921h-73.093c-4.627 0-8.408 4.017-8.408 8.921v72.078c0 4.908 3.781 8.916 8.408 8.916" fill="#00457d"/><path d="M53.579 326.981h68.911c2.547 0 4.633-2.208 4.633-4.91v-68.352c0-2.702-2.086-4.91-4.633-4.91h-68.911c-2.547 0-4.633 2.208-4.633 4.91v68.352c0 2.702 2.086 4.91 4.633 4.91" fill="#fff"/></g></g></g></svg>