<svg xmlns="http://www.w3.org/2000/svg" xmlns:xlink="http://www.w3.org/1999/xlink" width="195" height="65"><defs><linearGradient id="c"><stop offset="0" stop-color="#ffb534"/><stop offset="1" stop-color="#ff8706"/></linearGradient><linearGradient id="b"><stop offset="0" stop-color="#89c2e5"/><stop offset="1" stop-color="#5ea9be"/></linearGradient><linearGradient id="a"><stop offset="0" stop-color="#aad33c"/><stop offset="1" stop-color="#80bb17"/></linearGradient><linearGradient xlink:href="#a" id="f" x1="194.279" y1="600.154" x2="195.005" y2="288.522" gradientUnits="userSpaceOnUse"/><linearGradient xlink:href="#b" id="e" x1="194.563" y1="601.019" x2="194.931" y2="288.519" gradientUnits="userSpaceOnUse"/><linearGradient xlink:href="#c" id="d" x1="193.134" y1="599.948" x2="194.931" y2="287.448" gradientUnits="userSpaceOnUse"/></defs><g><path d="M46.236 53.672l-13.846-10.112-13.885 10.058 5.339-16.293-13.856-10.097 17.145.043 5.321-16.298 5.258 16.319 17.145.024-13.896 10.043z" fill="url(#d)"/><path d="M176.236 53.672l-13.846-10.112-13.885 10.058 5.339-16.293-13.856-10.097 17.145.043 5.321-16.298 5.258 16.319 17.145.024-13.896 10.043z" fill="url(#e)"/><path d="M111.236 53.672l-13.846-10.112-13.885 10.058 5.339-16.293-13.856-10.097 17.145.043 5.321-16.298 5.258 16.319 17.145.024-13.896 10.043z" fill="url(#f)"/></g></svg>